# xmcd
#
# Track frame offsets: 
#        150
#        10826
#        25140
#        40426
#        56078
#        72092
#        87116
#        99297
#        112915
#        123355
#        142044
#
# Disc length: 2053 seconds
#
# Revision: 0
# Processed by: cddbd v1.5.2PL0 Copyright (c) Steve Scherf et al.
# Submitted via: ExactAudioCopy v1.1
#
DISCID=8a08030b
DTITLE=Garrett Owen - Garrett Owen
DYEAR=2016
DGENRE=Folk
TTITLE0=Sad Eyed Son
TTITLE1=Bag of Broken
TTITLE2=Razor Blade Family
TTITLE3=Mama Cries
TTITLE4=Distance
TTITLE5=Caught Me by Surprise
TTITLE6=Good Enough
TTITLE7=Rose Hill
TTITLE8=It Ain't Easy
TTITLE9=Scene of the Crime
TTITLE10=Good Luck, Good Night
EXTD=
EXTT0=
EXTT1=
EXTT2=
EXTT3=
EXTT4=
EXTT5=
EXTT6=
EXTT7=
EXTT8=
EXTT9=
EXTT10=
PLAYORDER=
